<svg xmlns="http://www.w3.org/2000/svg" width="249.756" height="243.792" viewBox="0 0 249.756 243.792"><defs><style>.a{fill:#f2f2f2;}.b{fill:#3f3d56;}.c{fill:#9c3;}.d{fill:#fff;}.e{fill:#e6e6e6;}</style></defs><path class="a" d="M458.786,206.066h-67.3a5.792,5.792,0,0,0-5.785,5.785V361.423l-.771.235-16.509,5.056a3.088,3.088,0,0,1-3.853-2.048L315.462,204.258a3.086,3.086,0,0,1,2.048-3.853l25.441-7.79,73.754-22.576,25.441-7.79A3.081,3.081,0,0,1,446,164.294l12.553,41Z" transform="translate(-300.231 -151.24)"/><path class="b" d="M449.424,187.972l-15.129-49.416a6.553,6.553,0,0,0-8.187-4.35l-35.768,10.948-73.75,22.579-35.768,10.952a6.562,6.562,0,0,0-4.35,8.187l51.707,168.885a6.566,6.566,0,0,0,6.271,4.639,6.477,6.477,0,0,0,1.917-.289l24.519-7.5.771-.239v-.806l-.771.235-24.747,7.578a5.791,5.791,0,0,1-7.223-3.837l-51.7-168.888a5.777,5.777,0,0,1,3.837-7.223l35.768-10.952,73.75-22.576,35.768-10.952a5.779,5.779,0,0,1,7.223,3.837l15.059,49.193.239.771h.8Z" transform="translate(-276.183 -133.917)"/><path class="c" d="M385.415,191.736a3.477,3.477,0,0,1-3.321-2.455l-4.967-16.225a3.47,3.47,0,0,1,2.3-4.335l67.85-20.772a3.474,3.474,0,0,1,4.335,2.3l4.967,16.225a3.475,3.475,0,0,1-2.3,4.335l-67.85,20.772A3.461,3.461,0,0,1,385.415,191.736Z" transform="translate(-338.105 -142.444)"/><circle class="c" cx="7.713" cy="7.713" r="7.713" transform="translate(65.618 1.909)"/><circle class="d" cx="4.884" cy="4.884" r="4.884" transform="translate(68.447 4.738)"/><path class="e" d="M665.944,456.828H535.6a3.282,3.282,0,0,1-3.278-3.278V297.365a3.282,3.282,0,0,1,3.278-3.278H665.944a3.282,3.282,0,0,1,3.278,3.278V453.55A3.282,3.282,0,0,1,665.944,456.828Z" transform="translate(-433.542 -232.318)"/><path class="b" d="M583.552,274.087H502.374a6.565,6.565,0,0,0-6.556,6.556V437.908l.771-.235V280.643a5.791,5.791,0,0,1,5.785-5.785h81.417Zm70.766,0H502.374a6.565,6.565,0,0,0-6.556,6.556V457.267a6.565,6.565,0,0,0,6.556,6.556H654.318a6.565,6.565,0,0,0,6.556-6.556V280.643A6.565,6.565,0,0,0,654.318,274.087Zm5.785,183.18a5.792,5.792,0,0,1-5.785,5.785H502.374a5.792,5.792,0,0,1-5.785-5.785V280.643a5.791,5.791,0,0,1,5.785-5.785H654.318a5.792,5.792,0,0,1,5.785,5.785Z" transform="translate(-411.117 -220.031)"/><path class="c" d="M683.248,280H612.289a3.475,3.475,0,0,1-3.471-3.471V259.558a3.475,3.475,0,0,1,3.471-3.471h70.958a3.475,3.475,0,0,1,3.471,3.471v16.968A3.475,3.475,0,0,1,683.247,280Z" transform="translate(-480.54 -208.973)"/><circle class="c" cx="7.713" cy="7.713" r="7.713" transform="translate(159.515 32.845)"/><circle class="d" cx="4.698" cy="4.698" r="4.698" transform="translate(162.53 35.86)"/></svg>