<svg width="150" height="88" viewBox="0 0 150 88" fill="none" xmlns="http://www.w3.org/2000/svg">
<path d="M20.4345 48.042V13.482H27.0105L49.1865 39.882V13.482H54.9945V48.042H48.4185L26.1945 21.594V48.042H20.4345ZM67.38 48.042C66.196 48.042 65.124 47.754 64.164 47.178C63.204 46.57 62.42 45.786 61.812 44.826C61.236 43.866 60.948 42.794 60.948 41.61V40.698H66.66V41.418C66.66 41.674 66.74 41.898 66.9 42.09C67.092 42.25 67.316 42.33 67.572 42.33H82.596C82.852 42.33 83.06 42.25 83.22 42.09C83.412 41.898 83.508 41.674 83.508 41.418V37.866C83.508 37.642 83.412 37.45 83.22 37.29C83.06 37.098 82.852 37.002 82.596 37.002H67.38C66.196 37.002 65.124 36.714 64.164 36.138C63.204 35.53 62.42 34.746 61.812 33.786C61.236 32.826 60.948 31.754 60.948 30.57V26.634C60.948 25.45 61.236 24.378 61.812 23.418C62.42 22.458 63.204 21.69 64.164 21.114C65.124 20.506 66.196 20.202 67.38 20.202H82.788C84.004 20.202 85.092 20.506 86.052 21.114C87.012 21.69 87.78 22.458 88.356 23.418C88.964 24.378 89.268 25.45 89.268 26.634V27.546H83.508V26.826C83.508 26.57 83.412 26.362 83.22 26.202C83.06 26.01 82.852 25.914 82.596 25.914H67.572C67.316 25.914 67.092 26.01 66.9 26.202C66.74 26.362 66.66 26.57 66.66 26.826V30.378C66.66 30.602 66.74 30.81 66.9 31.002C67.092 31.162 67.316 31.242 67.572 31.242H82.788C84.004 31.242 85.092 31.546 86.052 32.154C87.012 32.73 87.78 33.498 88.356 34.458C88.964 35.418 89.268 36.49 89.268 37.674V41.61C89.268 42.794 88.964 43.866 88.356 44.826C87.78 45.786 87.012 46.57 86.052 47.178C85.092 47.754 84.004 48.042 82.788 48.042H67.38ZM101.486 48.042C100.302 48.042 99.2143 47.754 98.2223 47.178C97.2623 46.57 96.4943 45.786 95.9183 44.826C95.3423 43.866 95.0543 42.794 95.0543 41.61V11.514H100.766V20.202H111.902V25.914H100.766V41.418C100.766 41.674 100.846 41.898 101.006 42.09C101.198 42.25 101.422 42.33 101.678 42.33H111.902V48.042H101.486ZM123.867 48.042C122.683 48.042 121.595 47.754 120.603 47.178C119.643 46.57 118.875 45.786 118.299 44.826C117.723 43.866 117.435 42.794 117.435 41.61V31.242H139.995V26.826C139.995 26.57 139.899 26.362 139.707 26.202C139.547 26.01 139.339 25.914 139.083 25.914H117.435V20.202H139.275C140.491 20.202 141.579 20.506 142.539 21.114C143.499 21.69 144.267 22.458 144.843 23.418C145.419 24.378 145.707 25.45 145.707 26.634V48.042H123.867ZM124.059 42.33H139.995V36.474H123.147V41.418C123.147 41.674 123.227 41.898 123.387 42.09C123.579 42.25 123.803 42.33 124.059 42.33Z" fill="#AADA46"/>
<path d="M43.2665 82.8391L34.4265 72.2791H40.7065L48.6665 81.7191V82.8391H43.2665ZM19.9865 82.8391V54.0791H43.3865C44.3732 54.0791 45.2665 54.3325 46.0665 54.8391C46.8932 55.3191 47.5465 55.9725 48.0265 56.7991C48.5332 57.5991 48.7865 58.4925 48.7865 59.4791V67.3991C48.7865 68.3591 48.5332 69.2525 48.0265 70.0791C47.5465 70.9058 46.8932 71.5591 46.0665 72.0391C45.2665 72.5191 44.3732 72.7591 43.3865 72.7591L24.7865 72.7991V82.8391H19.9865ZM25.5065 67.9191H43.2265C43.4132 67.9191 43.5732 67.8525 43.7065 67.7191C43.8665 67.5858 43.9465 67.4125 43.9465 67.1991V59.5991C43.9465 59.4125 43.8665 59.2525 43.7065 59.1191C43.5732 58.9591 43.4132 58.8791 43.2265 58.8791H25.5065C25.3199 58.8791 25.1465 58.9591 24.9865 59.1191C24.8532 59.2525 24.7865 59.4125 24.7865 59.5991V67.1991C24.7865 67.4125 24.8532 67.5858 24.9865 67.7191C25.1465 67.8525 25.3199 67.9191 25.5065 67.9191ZM53.6344 82.8391V59.6391H58.3944V82.8391H53.6344ZM53.6344 56.8391V52.0391H58.3944V56.8391H53.6344ZM67.814 82.8391C66.8274 82.8391 65.9207 82.5991 65.094 82.1191C64.294 81.6125 63.654 80.9591 63.174 80.1591C62.694 79.3591 62.454 78.4658 62.454 77.4791V64.9991C62.454 64.0125 62.694 63.1191 63.174 62.3191C63.654 61.5191 64.294 60.8791 65.094 60.3991C65.9207 59.8925 66.8274 59.6391 67.814 59.6391H81.294V52.0391H86.054V82.8391H67.814ZM68.014 78.0791H80.534C80.7474 78.0791 80.9207 78.0125 81.054 77.8791C81.214 77.7191 81.294 77.5325 81.294 77.3191V65.1591C81.294 64.9458 81.214 64.7725 81.054 64.6391C80.9207 64.4791 80.7474 64.3991 80.534 64.3991H68.014C67.8007 64.3991 67.614 64.4791 67.454 64.6391C67.3207 64.7725 67.254 64.9458 67.254 65.1591V77.3191C67.254 77.5325 67.3207 77.7191 67.454 77.8791C67.614 78.0125 67.8007 78.0791 68.014 78.0791ZM95.5544 82.8391C94.5677 82.8391 93.6744 82.5991 92.8744 82.1191C92.0744 81.6125 91.421 80.9591 90.9144 80.1591C90.4344 79.3591 90.1944 78.4658 90.1944 77.4791V64.9991C90.1944 64.0125 90.4344 63.1191 90.9144 62.3191C91.421 61.5191 92.0744 60.8791 92.8744 60.3991C93.6744 59.8925 94.5677 59.6391 95.5544 59.6391H108.394C109.408 59.6391 110.314 59.8925 111.114 60.3991C111.914 60.8791 112.554 61.5191 113.034 62.3191C113.514 63.1191 113.754 64.0125 113.754 64.9991V73.6391H94.9544V77.3191C94.9544 77.5325 95.021 77.7191 95.1544 77.8791C95.3144 78.0125 95.501 78.0791 95.7144 78.0791H113.754V82.8391H95.5544ZM94.9544 69.2791H108.994V65.1591C108.994 64.9458 108.914 64.7725 108.754 64.6391C108.621 64.4791 108.448 64.3991 108.234 64.3991H95.7144C95.501 64.3991 95.3144 64.4791 95.1544 64.6391C95.021 64.7725 94.9544 64.9458 94.9544 65.1591V69.2791Z" fill="#AADA46"/>
<rect y="9" width="14" height="79" rx="4" fill="#AADA46"/>
</svg>
