<svg width="160" height="67" viewBox="0 0 160 67" fill="none" xmlns="http://www.w3.org/2000/svg">
<path d="M1.3125 25.8438C1.3125 25.2604 1.51042 24.7708 1.90625 24.375C2.32292 23.9583 2.82292 23.75 3.40625 23.75H9.40625V13.6875H3.40625C2.82292 13.6875 2.33333 13.4792 1.9375 13.0625C1.52083 12.6667 1.3125 12.1771 1.3125 11.5938C1.3125 11.0104 1.51042 10.5208 1.90625 10.125C2.32292 9.70833 2.82292 9.5 3.40625 9.5H19.5938C20.1771 9.5 20.6771 9.69792 21.0938 10.0938C21.4896 10.5104 21.6875 11.0104 21.6875 11.5938C21.6875 12.1771 21.4792 12.6771 21.0625 13.0938C20.6667 13.4896 20.1771 13.6875 19.5938 13.6875H13.625V23.75H19.5938C20.1771 23.75 20.6771 23.9479 21.0938 24.3438C21.4896 24.7604 21.6875 25.2604 21.6875 25.8438C21.6875 26.4271 21.4792 26.9271 21.0625 27.3438C20.6667 27.7396 20.1771 27.9375 19.5938 27.9375H3.40625C2.82292 27.9375 2.33333 27.7292 1.9375 27.3125C1.52083 26.9167 1.3125 26.4271 1.3125 25.8438ZM35.515 8.65625C36.5983 8.65625 37.6608 8.78125 38.7025 9.03125C39.765 9.28125 40.7754 9.65625 41.7337 10.1562C42.6921 10.6354 43.5358 11.2812 44.265 12.0938C45.015 12.9062 45.4212 13.875 45.4837 15V16.3125V26.2812C45.3587 27.5312 44.6712 28.2083 43.4212 28.3125C42.8379 28.3125 42.3275 28.125 41.89 27.75C41.4733 27.3542 41.265 26.8646 41.265 26.2812V15.9688C41.2233 15.3229 40.9733 14.7917 40.515 14.375C40.0775 13.9375 39.5775 13.5938 39.015 13.3438C38.4733 13.0938 37.9004 12.9062 37.2962 12.7812C36.7129 12.6562 36.1192 12.5938 35.515 12.5938C34.9108 12.5938 34.3067 12.6562 33.7025 12.7812C33.1192 12.9062 32.5462 13.0938 31.9837 13.3438C31.4421 13.5938 30.9421 13.9375 30.4837 14.375C30.0462 14.7917 29.8067 15.3229 29.765 15.9688V26.2812C29.6608 27.5312 28.9837 28.2083 27.7337 28.3125C27.1504 28.3125 26.64 28.125 26.2025 27.75C25.7858 27.3542 25.5775 26.8646 25.5775 26.2812V16.3125V15C25.64 13.875 26.0358 12.9062 26.765 12.0938C27.4942 11.2812 28.3379 10.6354 29.2962 10.1562C30.2546 9.65625 31.2546 9.28125 32.2962 9.03125C33.3587 8.78125 34.4317 8.65625 35.515 8.65625ZM73.16 11.5938C73.16 12.1771 72.9517 12.6667 72.535 13.0625C72.1392 13.4792 71.6496 13.6875 71.0662 13.6875H58.5662C58.1704 13.7083 57.8371 13.8021 57.5662 13.9688C57.3162 14.1146 57.1287 14.2917 57.0037 14.5C56.8787 14.6875 56.8162 14.8854 56.8162 15.0938C56.8162 15.3021 56.8787 15.5104 57.0037 15.7188C57.1287 15.9062 57.3162 16.0833 57.5662 16.25C57.8371 16.3958 58.1704 16.4792 58.5662 16.5H67.4412C68.8996 16.5417 70.0975 16.8854 71.035 17.5312C71.9933 18.1562 72.6704 18.8854 73.0662 19.7188C73.4829 20.5312 73.6912 21.3646 73.6912 22.2188C73.6912 23.0521 73.4829 23.8854 73.0662 24.7188C72.6496 25.5312 71.9725 26.2604 71.035 26.9062C70.0975 27.5312 68.8996 27.8438 67.4412 27.8438H67.2537C67.1287 27.8646 67.0037 27.875 66.8787 27.875H55.0662C54.4829 27.875 53.9829 27.6771 53.5662 27.2812C53.1704 26.8646 52.9725 26.3646 52.9725 25.7812C52.9725 25.1979 53.1808 24.7083 53.5975 24.3125C53.9933 23.8958 54.4829 23.6875 55.0662 23.6875H67.6287C68.0246 23.7083 68.3475 23.6354 68.5975 23.4688C68.8683 23.3021 69.0662 23.1146 69.1912 22.9062C69.3162 22.6771 69.3787 22.4479 69.3787 22.2188C69.3787 22.0729 69.3162 21.875 69.1912 21.625C69.0662 21.3542 68.8683 21.1354 68.5975 20.9688C68.3475 20.8021 68.0246 20.7083 67.6287 20.6875H58.7537C57.2954 20.6458 56.0871 20.3125 55.1287 19.6875C54.1912 19.0625 53.5142 18.3542 53.0975 17.5625C52.7017 16.75 52.5037 15.9271 52.5037 15.0938C52.5037 14.2812 52.7121 13.4792 53.1287 12.6875C53.5454 11.875 54.2225 11.1562 55.16 10.5312C56.0975 9.90625 57.2954 9.57292 58.7537 9.53125H58.9412C59.0662 9.51042 59.1912 9.5 59.3162 9.5H71.0662C71.6496 9.5 72.1392 9.70833 72.535 10.125C72.9517 10.5208 73.16 11.0104 73.16 11.5938ZM80.1175 11.5938C80.1175 11.0104 80.3154 10.5208 80.7113 10.125C81.1279 9.70833 81.6279 9.5 82.2113 9.5H100.399C100.982 9.5 101.482 9.69792 101.899 10.0938C102.295 10.5104 102.493 11.0104 102.493 11.5938C102.493 12.1771 102.284 12.6771 101.868 13.0938C101.472 13.4896 100.982 13.6875 100.399 13.6875H93.43V26.3438C93.305 27.5938 92.6175 28.2708 91.3675 28.375C90.7842 28.375 90.2738 28.1875 89.8363 27.8125C89.4196 27.4167 89.2113 26.9271 89.2113 26.3438V13.6875H82.2113C81.6279 13.6875 81.1383 13.4792 80.7425 13.0625C80.3258 12.6667 80.1175 12.1771 80.1175 11.5938ZM116.325 23.0938C116.325 22.5104 116.523 22.0208 116.919 21.625C117.335 21.2083 117.835 21 118.419 21H123.2L122.387 18.6875C122.054 17.8333 121.721 17.0312 121.387 16.2812C121.075 15.5104 120.71 14.8125 120.294 14.1875C119.919 13.5625 119.492 13.2292 119.012 13.1875C118.512 13.2292 118.065 13.5625 117.669 14.1875C117.273 14.8125 116.908 15.5104 116.575 16.2812C116.262 17.0312 115.94 17.8333 115.606 18.6875L112.637 26.8125C112.429 27.25 112.158 27.6146 111.825 27.9062C111.512 28.1771 111.033 28.3125 110.387 28.3125C109.783 28.3125 109.283 28.1042 108.887 27.6875C108.512 27.2708 108.346 26.7708 108.387 26.1875C108.408 25.9167 108.471 25.6667 108.575 25.4375L112.012 16.5625C112.971 14.2292 113.929 12.3438 114.887 10.9062C115.825 9.48958 117.2 8.77083 119.012 8.75C120.804 8.77083 122.169 9.48958 123.106 10.9062C124.065 12.3021 125.023 14.1875 125.981 16.5625L129.419 25.4375C129.523 25.6667 129.585 25.9167 129.606 26.1875C129.648 26.7708 129.471 27.2708 129.075 27.6875C128.7 28.1042 128.21 28.3125 127.606 28.3125C126.919 28.3125 126.408 28.1771 126.075 27.9062C125.762 27.6146 125.502 27.25 125.294 26.8125L124.7 25.1875H118.419C117.835 25.1875 117.346 24.9792 116.95 24.5625C116.533 24.1667 116.325 23.6771 116.325 23.0938Z" fill="black"/>
<path d="M6.1875 54.3438C6.0625 55.5938 5.375 56.2708 4.125 56.375C3.54167 56.375 3.03125 56.1875 2.59375 55.8125C2.17708 55.4167 1.96875 54.9271 1.96875 54.3438V39.5312C1.98958 38.9479 2.20833 38.4688 2.625 38.0938C3.04167 37.6979 3.54167 37.5 4.125 37.5H5.65625H9.5H17.2188C17.3438 37.5 17.4688 37.5104 17.5938 37.5312H17.7812C19.2396 37.5729 20.4375 37.9062 21.375 38.5312C22.3125 39.1562 22.9896 39.875 23.4062 40.6875C23.8229 41.4792 24.0312 42.2812 24.0312 43.0938C24.0312 43.9271 23.8229 44.75 23.4062 45.5625C23.0104 46.3542 22.3333 47.0625 21.375 47.6875C20.4375 48.3125 19.2396 48.6458 17.7812 48.6875H12.2812C12.4479 49.7292 12.7917 50.5 13.3125 51C13.8125 51.5 14.4479 51.75 15.2188 51.75H21.9688C22.5521 51.7708 23.0312 51.9896 23.4062 52.4062C23.8021 52.8229 24 53.3229 24 53.9062C23.9792 54.4688 23.7708 54.9479 23.375 55.3438C23 55.7188 22.5312 55.9167 21.9688 55.9375H14.6562C13.1146 55.9583 11.7188 55.3542 10.4688 54.125C9.21875 52.8958 8.45833 51.4375 8.1875 49.75C7.8125 47.875 7.625 46.8229 7.625 46.5938C7.625 46.0104 7.82292 45.5208 8.21875 45.125C8.63542 44.7083 9.13542 44.5 9.71875 44.5H17.9688C18.3646 44.4792 18.6875 44.3958 18.9375 44.25C19.2083 44.0833 19.4062 43.9062 19.5312 43.7188C19.6562 43.5104 19.7188 43.3021 19.7188 43.0938C19.7188 42.8854 19.6562 42.6875 19.5312 42.5C19.4062 42.2917 19.2083 42.1146 18.9375 41.9688C18.6875 41.8021 18.3646 41.7083 17.9688 41.6875H9.5H7C6.45833 41.7083 6.1875 41.9792 6.1875 42.5V54.3438ZM31.1625 41.4375C31.725 41.4583 32.2042 41.6667 32.6 42.0625C32.9958 42.4375 33.2042 42.9062 33.225 43.4688V54.2812C33.1 55.5312 32.4125 56.2083 31.1625 56.3125C30.5792 56.3125 30.0688 56.125 29.6313 55.75C29.2146 55.3542 29.0063 54.8646 29.0063 54.2812V43.4688C29.0271 42.8854 29.2458 42.4062 29.6625 42.0312C30.0792 41.6354 30.5792 41.4375 31.1625 41.4375ZM28.5375 37.375C28.5375 36.7917 28.7875 36.2917 29.2875 35.875C29.7875 35.4583 30.3917 35.25 31.1 35.25C31.8083 35.25 32.4125 35.4583 32.9125 35.875C33.4125 36.2917 33.6625 36.7917 33.6625 37.375C33.6625 37.9792 33.4125 38.4896 32.9125 38.9062C32.4125 39.3229 31.8083 39.5312 31.1 39.5312C30.3917 39.5312 29.7875 39.3229 29.2875 38.9062C28.7875 38.4896 28.5375 37.9792 28.5375 37.375ZM56.0438 39.0312C56.1688 37.7812 56.8563 37.1042 58.1063 37C58.6896 37 59.1896 37.1979 59.6063 37.5938C60.0438 37.9688 60.2625 38.4479 60.2625 39.0312V53.9062C60.2417 54.4896 60.0229 54.9792 59.6063 55.375C59.1896 55.75 58.6896 55.9375 58.1063 55.9375H44.9813C43.1479 55.875 41.7625 55.4479 40.825 54.6562C39.8875 53.8438 39.2104 52.9375 38.7938 51.9375C38.3771 50.9167 38.1688 49.8854 38.1688 48.8438C38.1688 47.7604 38.3667 46.7188 38.7625 45.7188C39.1792 44.6979 39.8563 43.7917 40.7938 43C41.7521 42.1875 42.9604 41.7708 44.4188 41.75H52.2938C52.8771 41.75 53.3667 41.9583 53.7625 42.375C54.1792 42.7708 54.3875 43.2604 54.3875 43.8438C54.3875 44.4271 54.1792 44.9271 53.7625 45.3438C53.3667 45.7396 52.8771 45.9375 52.2938 45.9375H44.2938C43.8979 45.9375 43.5542 46.1042 43.2625 46.4375C42.9708 46.75 42.7521 47.125 42.6063 47.5625C42.4813 47.9792 42.4188 48.3958 42.4188 48.8125C42.4188 49.25 42.4813 49.6875 42.6063 50.125C42.7521 50.5417 42.9708 50.9167 43.2625 51.25C43.5542 51.5625 43.8979 51.7292 44.2938 51.75H55.2313C55.7729 51.7292 56.0438 51.4583 56.0438 50.9375V39.0312ZM72.3938 55.9375C70.5604 55.875 69.175 55.4479 68.2375 54.6562C67.3 53.8438 66.6229 52.9375 66.2063 51.9375C65.7896 50.9167 65.5813 49.8854 65.5813 48.8438C65.5813 47.7604 65.7792 46.7188 66.175 45.7188C66.5917 44.6979 67.2688 43.7917 68.2063 43C69.1646 42.1875 70.3729 41.7708 71.8313 41.75H83.7063C84.2896 41.75 84.7792 41.9479 85.175 42.3438C85.5917 42.7188 85.8 43.1771 85.8 43.7188C85.8 44.2812 85.5917 44.7604 85.175 45.1562C84.7792 45.5312 84.2896 45.7188 83.7063 45.7188H72.0188C71.5604 45.7188 71.1542 45.875 70.8 46.1875C70.4667 46.5 70.2167 46.9062 70.05 47.4062C69.9042 47.9062 69.8313 48.3958 69.8313 48.875C69.8313 49.3958 69.9042 49.9062 70.05 50.4062C70.2167 50.9062 70.4667 51.3125 70.8 51.625C71.1542 51.9167 71.5604 52.0729 72.0188 52.0938H83.7063C84.2896 52.0938 84.7792 52.2812 85.175 52.6562C85.5917 53.0312 85.8 53.4792 85.8 54C85.8 54.5417 85.5917 55 85.175 55.375C84.7792 55.75 84.2896 55.9375 83.7063 55.9375H72.3938ZM85.425 48.7812C85.425 49.1771 85.2479 49.5208 84.8938 49.8125C84.5813 50.0833 84.1854 50.2188 83.7063 50.2188H73.4875C73.0083 50.2188 72.6021 50.0833 72.2688 49.8125C71.9354 49.5208 71.7688 49.1771 71.7688 48.7812C71.7688 48.4062 71.9354 48.0729 72.2688 47.7812C72.6021 47.5104 73.0083 47.375 73.4875 47.375H83.7063C84.1854 47.375 84.5917 47.5208 84.925 47.8125C85.2583 48.0833 85.425 48.4062 85.425 48.7812Z" fill="black"/>
<g filter="url(#filter0_d_1_17)">
<path d="M93 32.8716L115.968 32.1313L151.716 51.2693L101.222 56.76L93 32.8716Z" fill="#AADA46"/>
<path d="M92.9839 32.3719L92.3067 32.3937L92.5272 33.0344L100.749 56.9228L100.879 57.3003L101.276 57.2571L151.77 51.7664L153.378 51.5916L151.952 50.8285L116.204 31.6905L116.086 31.6272L115.952 31.6315L92.9839 32.3719Z" stroke="#A7DD35"/>
</g>
<path d="M106 32.84L127.695 52.2815" stroke="white" stroke-width="2"/>
<defs>
<filter id="filter0_d_1_17" x="87.6134" y="31.1232" width="71.4255" height="35.7173" filterUnits="userSpaceOnUse" color-interpolation-filters="sRGB">
<feFlood flood-opacity="0" result="BackgroundImageFix"/>
<feColorMatrix in="SourceAlpha" type="matrix" values="0 0 0 0 0 0 0 0 0 0 0 0 0 0 0 0 0 0 127 0" result="hardAlpha"/>
<feOffset dy="5"/>
<feGaussianBlur stdDeviation="2"/>
<feComposite in2="hardAlpha" operator="out"/>
<feColorMatrix type="matrix" values="0 0 0 0 0 0 0 0 0 0 0 0 0 0 0 0 0 0 0.25 0"/>
<feBlend mode="normal" in2="BackgroundImageFix" result="effect1_dropShadow_1_17"/>
<feBlend mode="normal" in="SourceGraphic" in2="effect1_dropShadow_1_17" result="shape"/>
</filter>
</defs>
</svg>
